<?xml version="1.0" encoding="UTF-8" standalone="no"?>
<!-- Created with Inkscape (http://www.inkscape.org/) -->

<svg
   width="2000"
   height="2000"
   viewBox="0 0 529.16665 529.16666"
   version="1.1"
   id="svg1"
   inkscape:version="1.4.3 (0d15f75042, 2025-12-25)"
   sodipodi:docname="redot-engine.svg"
   inkscape:export-filename="../../Logo (profile picture)/Red Orange on Black (circle).png"
   inkscape:export-xdpi="96"
   inkscape:export-ydpi="96"
   xml:space="preserve"
   xmlns:inkscape="http://www.inkscape.org/namespaces/inkscape"
   xmlns:sodipodi="http://sodipodi.sourceforge.net/DTD/sodipodi-0.dtd"
   xmlns:xlink="http://www.w3.org/1999/xlink"
   xmlns="http://www.w3.org/2000/svg"
   xmlns:svg="http://www.w3.org/2000/svg"
   xmlns:rdf="http://www.w3.org/1999/02/22-rdf-syntax-ns#"
   xmlns:cc="http://creativecommons.org/ns#"
   xmlns:dc="http://purl.org/dc/elements/1.1/"><sodipodi:namedview
     id="namedview1"
     pagecolor="#ffffff"
     bordercolor="#000000"
     borderopacity="0.25"
     inkscape:showpageshadow="2"
     inkscape:pageopacity="0.0"
     inkscape:pagecheckerboard="true"
     inkscape:deskcolor="#d1d1d1"
     inkscape:document-units="px"
     inkscape:zoom="0.16095339"
     inkscape:cx="913.30788"
     inkscape:cy="344.82032"
     inkscape:window-width="1920"
     inkscape:window-height="1024"
     inkscape:window-x="0"
     inkscape:window-y="0"
     inkscape:window-maximized="1"
     inkscape:current-layer="layer1"
     showguides="true"><sodipodi:guide
       position="264.58145,443.13112"
       orientation="0,-1"
       id="guide1"
       inkscape:locked="false" /><sodipodi:guide
       position="91.392504,233.78436"
       orientation="1,0"
       id="guide2"
       inkscape:locked="false" /><sodipodi:guide
       position="437.77415,233.78436"
       orientation="1,0"
       id="guide3"
       inkscape:locked="false" /><sodipodi:guide
       position="264.5815,86.035535"
       orientation="0,-1"
       id="guide4"
       inkscape:locked="false" /><sodipodi:guide
       position="264.40788,529.16666"
       orientation="0,-1"
       id="guide5"
       inkscape:locked="false" /><sodipodi:guide
       position="259.98792,0"
       orientation="0,-1"
       id="guide6"
       inkscape:locked="false" /><sodipodi:guide
       position="529.16665,272.02531"
       orientation="1,0"
       id="guide7"
       inkscape:locked="false" /><sodipodi:guide
       position="0,260.63898"
       orientation="1,0"
       id="guide8"
       inkscape:locked="false" /></sodipodi:namedview><defs
     id="defs1"><linearGradient
       inkscape:collect="always"
       xlink:href="#linearGradient51"
       id="linearGradient81"
       gradientUnits="userSpaceOnUse"
       gradientTransform="matrix(4.7771399,0,0,4.777724,-2067.7304,-2440.2947)"
       x1="460.70163"
       y1="533.83105"
       x2="521.85077"
       y2="595.22528" /><linearGradient
       id="linearGradient51"
       inkscape:collect="always"><stop
         style="stop-color:#fb4934;stop-opacity:1;"
         offset="0"
         id="stop51" /><stop
         style="stop-color:#d65d0e;stop-opacity:1;"
         offset="1"
         id="stop52" /></linearGradient><linearGradient
       id="linearGradient31"
       x1=".5002"
       x2=".5002"
       y2="1"
       gradientTransform="matrix(244,0,0,228,5.986,12)"
       gradientUnits="userSpaceOnUse"><stop
         stop-color="#ebdbb2"
         stop-opacity=".2"
         offset="0"
         id="stop1" /><stop
         stop-color="#ebdbb2"
         stop-opacity=".05"
         offset=".1"
         id="stop2" /><stop
         stop-opacity=".1"
         offset=".7036"
         id="stop3" /><stop
         stop-opacity=".15"
         offset=".8975"
         id="stop4" /><stop
         stop-opacity=".2"
         offset="1"
         id="stop5" /></linearGradient><linearGradient
       id="linearGradient6"
       x1="140"
       x2="140"
       y1="12"
       y2="240"
       gradientUnits="userSpaceOnUse"><stop
         stop-color="#504945"
         offset="0"
         id="stop6" /><stop
         stop-color="#3c3836"
         offset="1"
         id="stop7" /></linearGradient></defs><g
     id="g1"
     transform="matrix(2.1661928,0,0,2.1661928,-12.997157,-12.765147)"><path
       d="m 165,12 c 72,0 85,15 85,87 v 56 c 0,70 -13,85 -85,85 H 91 C 19,240 6,225 6,155 V 99 C 6,27 19,12 91,12 Z"
       fill="url(#linearGradient6)"
       style="isolation:isolate;fill:url(#linearGradient6)"
       id="path7" /><path
       d="M 91,12 C 19,12 6,27 6,99 v 56 c 0,70 13,85 85,85 h 74 c 72,0 85,-15 85,-85 V 99 C 250,27 237,12 165,12 Z m 0,4 h 74 c 68,0 80,15 80,83 v 56 c 0,66 -12,81 -80,81 H 91 C 23,236 11,221 11,155 V 99 C 11,31 23,16 91,16 Z"
       fill="url(#linearGradient31)"
       style="isolation:isolate;fill:url(#linearGradient31)"
       id="path8" /></g><g
     inkscape:label="Layer 1"
     inkscape:groupmode="layer"
     id="layer1"><path
       id="path24"
       style="font-variation-settings:normal;opacity:1;vector-effect:none;fill:url(#linearGradient81);fill-opacity:1;stroke:none;stroke-width:0.462007;stroke-linecap:butt;stroke-linejoin:miter;stroke-miterlimit:4;stroke-dasharray:none;stroke-dashoffset:0;stroke-opacity:1;-inkscape-stroke:none;paint-order:stroke fill markers;stop-color:#000000;stop-opacity:1"
       d="m 212.83778,65.699287 -9.82891,31.048922 c -10.70611,4.629601 -21.41239,9.259131 -32.11711,13.891821 -11.35871,-2.39188 -22.74623,-5.16258 -34.25646,-6.55073 -1.81704,2.04459 -47.791773,72.74384 -47.778785,73.47432 2.118178,5.1861 5.755712,9.6473 8.506974,14.50048 L 264.5824,250.79574 431.80129,192.0641 c 2.75135,-4.85318 6.3888,-9.31436 8.50698,-14.50048 0.009,-0.73038 -45.96174,-71.42973 -47.77878,-73.47432 -11.51024,1.38815 -22.89767,4.15885 -34.25646,6.55073 -10.70482,-4.63269 -21.4111,-9.26222 -32.11721,-13.891821 L 316.327,65.699287 Z M 110.09866,213.42474 c -0.20712,-0.0636 -0.62409,0.24527 -0.63954,0.34973 -2.01416,16.42145 -5.95048,49.27548 -5.95048,49.27548 l 10.18884,44.04285 77.08376,35.0171 73.8007,-27.59533 73.80079,27.59533 77.08375,-35.0171 10.18885,-44.04285 c 0,0 -3.93632,-32.85403 -5.95048,-49.27548 -0.0182,-0.13989 -0.75401,-0.6468 -0.75401,-0.13444 -50.46208,17.93605 -103.10004,35.30661 -154.36935,52.99812 -51.26914,-17.69151 -103.9071,-35.06207 -154.36937,-52.99812 0,-0.12808 -0.0454,-0.19259 -0.11446,-0.2153 z m 38.76725,39.25426 c 24.21052,8.35061 48.61935,16.64345 73.02708,24.93529 a 39.300317,39.289444 0 0 1 -1.84674,7.50914 39.300317,39.289444 0 0 1 -50.47982,23.24719 39.300317,39.289444 0 0 1 -23.25357,-50.4659 39.300317,39.289444 0 0 1 2.55305,-5.22572 z m 231.43296,0 a 39.300317,39.289444 0 0 1 2.55314,5.22571 39.300317,39.289444 0 0 1 -23.25376,50.46589 39.300317,39.289444 0 0 1 -50.47981,-23.24718 39.300317,39.289444 0 0 1 -1.84665,-7.50914 c 24.40773,-8.29184 48.81666,-16.58469 73.02708,-24.93528 z m -290.123677,27.87442 -18.510775,18.33749 27.730776,97.2125 87.645956,35.94179 -4.71601,-75.6231 -83.118362,-38.66907 z m 348.814487,0 -9.03177,37.19961 -83.11827,38.66907 -4.71601,75.6231 87.64597,-35.94179 27.73076,-97.2125 z m -174.40728,50.07246 -65.72432,26.0047 3.98936,81.69292 61.73496,25.14387 61.73494,-25.14387 3.98946,-81.69295 z"
       inkscape:label="Symbol" /></g><metadata
     id="metadata3"><rdf:RDF><cc:Work
         rdf:about=""><dc:creator><cc:Agent><dc:title>A. Irsyad</dc:title></cc:Agent></dc:creator><dc:description>Created for Redot Engine</dc:description></cc:Work></rdf:RDF></metadata></svg>
